P3
50 28
255
218 234 255
218 234 255
218 234 255
218 234 255
218 234 255
218 234 255
218 234 255
218 234 255
218 234 255
218 234 255
218 234 255
218 234 255
218 234 255
218 234 255
218 234 255
218 234 255
218 234 255
218 234 255
218 234 255
218 234 255
218 234 255
218 234 255
218 234 255
218 234 255
218 234 255
218 234 255
218 234 255
218 234 255
218 233 255
218 234 255
218 234 255
218 234 255
218 234 255
218 234 255
218 234 255
218 234 255
218 234 255
218 234 255
218 234 255
218 234 255
218 234 255
218 233 255
218 234 255
218 234 255
218 234 255
218 234 255
218 234 255
218 234 255
218 234 255
218 234 255
218 234 255
218 234 255
218 234 255
218 234 255
218 234 255
218 234 255
218 234 255
218 234 255
218 234 255
218 234 255
218 234 255
218 234 255
218 234 255
218 234 255
218 234 255
218 234 255
218 234 255
218 234 255
218 234 255
218 234 255
218 234 255
218 234 255
218 234 255
218 234 255
218 234 255
218 234 255
218 234 255
218 234 255
218 234 255
218 234 255
218 234 255
218 234 255
218 234 255
218 234 255
218 234 255
218 234 255
218 234 255
218 234 255
218 234 255
218 234 255
218 234 255
218 234 255
218 234 255
218 234 255
218 234 255
218 234 255
218 234 255
218 234 255
218 234 255
218 234 255
219 234 255
219 234 255
219 234 255
219 234 255
219 234 255
219 234 255
219 234 255
219 234 255
219 234 255
219 234 255
219 234 255
219 234 255
219 234 255
219 234 255
219 234 255
219 234 255
219 234 255
219 234 255
219 234 255
219 234 255
219 234 255
219 234 255
219 234 255
219 234 255
219 234 255
219 234 255
219 234 255
219 234 255
218 234 255
218 234 255
219 234 255
219 234 255
219 234 255
219 234 255
219 234 255
219 234 255
219 234 255
219 234 255
219 234 255
219 234 255
219 234 255
219 234 255
219 234 255
219 234 255
219 234 255
219 234 255
219 234 255
219 234 255
219 234 255
219 234 255
219 234 255
219 234 255
219 234 255
219 234 255
219 234 255
219 234 255
219 234 255
219 234 255
219 234 255
219 234 255
219 234 255
219 234 255
219 234 255
219 234 255
219 234 255
219 234 255
219 234 255
219 234 255
219 234 255
219 234 255
219 234 255
219 234 255
219 234 255
219 234 255
219 234 255
219 234 255
219 234 255
219 234 255
219 234 255
219 234 255
219 234 255
219 234 255
219 234 255
219 234 255
219 234 255
219 234 255
219 234 255
219 234 255
219 234 255
219 234 255
219 234 255
219 234 255
219 234 255
219 234 255
219 234 255
219 234 255
219 234 255
219 234 255
219 234 255
219 234 255
220 235 255
220 235 255
220 235 255
220 235 255
219 235 255
220 235 255
220 235 255
219 235 255
219 235 255
220 235 255
219 235 255
220 235 255
220 235 255
220 235 255
220 235 255
219 235 255
220 235 255
220 235 255
219 235 255
220 235 255
219 235 255
220 235 255
219 235 255
219 235 255
220 235 255
219 235 255
219 235 255
220 235 255
220 235 255
220 235 255
219 235 255
220 235 255
220 235 255
220 235 255
220 235 255
220 235 255
220 235 255
220 235 255
219 235 255
220 235 255
220 235 255
219 235 255
220 235 255
220 235 255
220 235 255
220 235 255
220 235 255
220 235 255
220 235 255
220 235 255
220 235 255
220 235 255
220 235 255
220 235 255
220 235 255
220 235 255
220 235 255
220 235 255
220 235 255
220 235 255
220 235 255
220 235 255
220 235 255
220 235 255
220 235 255
220 235 255
220 235 255
220 235 255
220 235 255
220 235 255
220 235 255
220 235 255
220 235 255
220 235 255
220 235 255
220 235 255
220 235 255
220 235 255
220 235 255
220 235 255
220 235 255
220 235 255
220 235 255
220 235 255
220 235 255
220 235 255
220 235 255
220 235 255
220 235 255
220 235 255
220 235 255
220 235 255
220 235 255
220 235 255
220 235 255
220 235 255
220 235 255
220 235 255
220 235 255
220 235 255
220 235 255
221 235 255
220 235 255
220 235 255
221 235 255
220 235 255
220 235 255
220 235 255
220 235 255
220 235 255
220 235 255
220 235 255
220 235 255
220 235 255
220 235 255
220 235 255
220 235 255
220 235 255
220 235 255
220 235 255
220 235 255
221 235 255
220 235 255
220 235 255
220 235 255
220 235 255
220 235 255
221 235 255
220 235 255
220 235 255
220 235 255
220 235 255
220 235 255
220 235 255
220 235 255
220 235 255
220 235 255
220 235 255
220 235 255
220 235 255
220 235 255
220 235 255
220 235 255
221 235 255
220 235 255
220 235 255
220 235 255
220 235 255
220 235 255
220 235 255
221 235 255
221 235 255
221 235 255
221 235 255
221 235 255
221 235 255
221 235 255
221 235 255
221 235 255
221 235 255
221 235 255
221 235 255
221 235 255
221 235 255
221 235 255
221 235 255
221 235 255
221 235 255
221 235 255
221 235 255
221 235 255
221 235 255
221 235 255
221 235 255
221 235 255
221 235 255
221 235 255
221 235 255
221 235 255
221 235 255
221 235 255
221 235 255
221 235 255
221 235 255
221 235 255
221 235 255
221 235 255
221 235 255
221 235 255
221 235 255
221 235 255
221 235 255
221 235 255
221 235 255
221 235 255
221 235 255
221 235 255
221 235 255
221 235 255
221 235 255
221 236 255
221 236 255
221 236 255
221 236 255
221 236 255
221 236 255
221 236 255
221 236 255
221 236 255
221 236 255
221 236 255
221 236 255
221 236 255
221 236 255
221 236 255
221 236 255
221 236 255
221 236 255
221 236 255
221 236 255
221 236 255
221 236 255
221 236 255
221 236 255
221 236 255
221 236 255
221 236 255
221 236 255
221 236 255
221 236 255
221 236 255
221 236 255
221 236 255
221 236 255
221 236 255
221 236 255
221 236 255
221 236 255
221 236 255
221 236 255
221 236 255
221 236 255
221 236 255
221 236 255
221 236 255
221 236 255
221 236 255
221 236 255
221 236 255
221 236 255
222 236 255
222 236 255
222 236 255
222 236 255
222 236 255
222 236 255
222 236 255
222 236 255
222 236 255
222 236 255
222 236 255
222 236 255
222 236 255
222 236 255
222 236 255
222 236 255
222 236 255
222 236 255
222 236 255
222 236 255
222 236 255
222 236 255
222 236 255
222 236 255
222 236 255
222 236 255
222 236 255
222 236 255
222 236 255
222 236 255
222 236 255
222 236 255
222 236 255
222 236 255
222 236 255
222 236 255
222 236 255
222 236 255
222 236 255
222 236 255
222 236 255
222 236 255
222 236 255
222 236 255
222 236 255
222 236 255
222 236 255
222 236 255
222 236 255
222 236 255
222 236 255
222 236 255
222 236 255
222 236 255
222 236 255
222 236 255
222 236 255
222 236 255
222 236 255
222 236 255
222 236 255
222 236 255
222 236 255
222 236 255
222 236 255
222 236 255
222 236 255
222 236 255
222 236 255
222 236 255
222 236 255
222 236 255
222 236 255
222 236 255
222 236 255
222 236 255
222 236 255
222 236 255
222 236 255
222 236 255
222 236 255
222 236 255
222 236 255
222 236 255
222 236 255
222 236 255
222 236 255
222 236 255
222 236 255
222 236 255
222 236 255
222 236 255
222 236 255
222 236 255
222 236 255
222 236 255
222 236 255
222 236 255
222 236 255
222 236 255
223 236 255
223 236 255
223 236 255
223 236 255
223 236 255
223 236 255
223 236 255
223 236 255
223 236 255
223 236 255
223 236 255
223 236 255
223 236 255
223 236 255
223 236 255
223 236 255
223 236 255
223 236 255
223 236 255
223 236 255
223 236 255
223 236 255
223 236 255
223 236 255
223 236 255
223 236 255
223 236 255
223 236 255
223 236 255
223 236 255
223 236 255
223 236 255
223 236 255
223 236 255
223 236 255
223 236 255
223 236 255
223 236 255
223 236 255
223 236 255
223 236 255
223 236 255
223 236 255
223 236 255
223 236 255
223 236 255
223 236 255
223 236 255
223 236 255
223 236 255
223 237 255
223 237 255
223 237 255
223 237 255
223 237 255
223 237 255
223 237 255
223 237 255
223 237 255
223 237 255
223 237 255
223 237 255
223 237 255
223 237 255
223 237 255
223 237 255
223 237 255
223 237 255
223 237 255
223 237 255
223 237 255
223 237 255
223 237 255
223 237 255
223 237 255
223 237 255
223 237 255
223 237 255
223 237 255
223 237 255
223 237 255
223 237 255
223 237 255
223 237 255
223 237 255
223 237 255
223 237 255
223 237 255
223 237 255
223 237 255
223 237 255
223 237 255
223 237 255
223 237 255
223 237 255
223 237 255
223 237 255
223 237 255
223 237 255
223 237 255
224 237 255
224 237 255
224 237 255
224 237 255
224 237 255
223 237 255
223 237 255
224 237 255
224 237 255
224 237 255
224 237 255
224 237 255
224 237 255
224 237 255
224 237 255
224 237 255
224 237 255
224 237 255
224 237 255
224 237 255
224 237 255
224 237 255
224 237 255
224 237 255
224 237 255
224 237 255
224 237 255
224 237 255
224 237 255
224 237 255
224 237 255
224 237 255
224 237 255
224 237 255
224 237 255
224 237 255
224 237 255
224 237 255
224 237 255
224 237 255
224 237 255
224 237 255
224 237 255
224 237 255
224 237 255
224 237 255
224 237 255
224 237 255
224 237 255
224 237 255
224 237 255
224 237 255
224 237 255
224 237 255
224 237 255
224 237 255
224 237 255
224 237 255
224 237 255
224 237 255
224 237 255
224 237 255
224 237 255
224 237 255
224 237 255
224 237 255
224 237 255
224 237 255
224 237 255
224 237 255
224 237 255
224 237 255
224 237 255
224 237 255
224 237 255
224 237 255
224 237 255
224 237 255
224 237 255
224 237 255
224 237 255
224 237 255
224 237 255
224 237 255
224 237 255
224 237 255
224 237 255
224 237 255
224 237 255
224 237 255
224 237 255
224 237 255
224 237 255
224 237 255
224 237 255
224 237 255
224 237 255
224 237 255
224 237 255
224 237 255
224 237 255
224 237 255
224 237 255
224 237 255
225 237 255
225 237 255
224 237 255
225 237 255
224 237 255
225 237 255
225 237 255
224 237 255
225 237 255
225 237 255
225 237 255
225 237 255
225 238 255
225 237 255
225 237 255
225 237 255
225 237 255
225 237 255
225 237 255
225 237 255
225 237 255
225 237 255
225 237 255
225 237 255
225 237 255
225 237 255
225 237 255
225 237 255
225 237 255
225 237 255
225 237 255
224 237 255
225 237 255
225 237 255
225 237 255
225 237 255
224 237 255
224 237 255
224 237 255
224 237 255
224 237 255
224 237 255
224 237 255
225 237 255
224 237 255
224 237 255
225 238 255
225 238 255
225 238 255
225 238 255
225 238 255
225 238 255
225 238 255
225 238 255
225 238 255
225 238 255
225 238 255
225 238 255
225 238 255
225 238 255
225 238 255
225 238 255
225 238 255
225 238 255
225 238 255
225 238 255
225 238 255
225 238 255
225 238 255
225 238 255
225 238 255
225 238 255
225 238 255
225 238 255
225 238 255
225 238 255
225 238 255
225 238 255
225 238 255
225 238 255
225 238 255
225 238 255
225 238 255
225 238 255
225 238 255
225 238 255
225 238 255
225 238 255
225 238 255
225 238 255
225 238 255
225 238 255
225 238 255
225 238 255
225 238 255
225 238 255
225 238 255
225 238 255
225 238 255
225 238 255
225 238 255
225 238 255
225 238 255
225 238 255
225 238 255
225 238 255
225 238 255
225 238 255
225 238 255
225 238 255
225 238 255
225 238 255
225 238 255
225 238 255
225 238 255
226 238 255
225 238 255
225 238 255
226 238 255
225 238 255
225 238 255
225 238 255
225 238 255
225 238 255
225 238 255
225 238 255
225 238 255
226 238 255
225 238 255
225 238 255
226 238 255
225 238 255
225 238 255
225 238 255
225 238 255
226 238 255
225 238 255
225 238 255
225 238 255
225 238 255
225 238 255
225 238 255
225 238 255
225 238 255
225 238 255
225 238 255
226 238 255
226 238 255
226 238 255
226 238 255
226 238 255
226 238 255
226 238 255
226 238 255
226 238 255
226 238 255
226 238 255
226 238 255
226 238 255
226 238 255
226 238 255
226 238 255
226 238 255
226 238 255
226 238 255
226 238 255
226 238 255
226 238 255
226 238 255
226 238 255
226 238 255
226 238 255
226 238 255
226 238 255
226 238 255
226 238 255
226 238 255
226 238 255
226 238 255
226 238 255
226 238 255
226 238 255
226 238 255
226 238 255
226 238 255
226 238 255
226 238 255
226 238 255
226 238 255
226 238 255
226 238 255
226 238 255
226 238 255
226 238 255
226 238 255
226 238 255
226 238 255
226 238 255
226 238 255
226 238 255
226 238 255
226 238 255
226 238 255
226 238 255
226 238 255
226 238 255
226 238 255
226 238 255
226 238 255
226 238 255
226 238 255
226 238 255
226 238 255
226 238 255
226 239 255
226 238 255
226 238 255
226 238 255
226 238 255
226 238 255
226 238 255
226 238 255
226 238 255
226 238 255
226 238 255
226 239 255
226 238 255
226 238 255
226 238 255
226 238 255
226 238 255
226 238 255
226 238 255
226 238 255
226 238 255
226 238 255
226 238 255
226 238 255
226 238 255
226 238 255
226 238 255
226 238 255
226 238 255
226 238 255
226 238 255
226 238 255
227 239 255
227 239 255
227 239 255
227 239 255
227 239 255
227 239 255
227 239 255
227 239 255
227 239 255
227 239 255
227 239 255
227 239 255
227 239 255
227 239 255
227 239 255
227 239 255
227 239 255
227 239 255
227 239 255
227 239 255
227 239 255
227 239 255
227 239 255
227 239 255
227 239 255
227 239 255
227 239 255
227 239 255
227 239 255
227 239 255
227 239 255
227 239 255
227 239 255
227 239 255
227 239 255
227 239 255
227 239 255
227 239 255
227 239 255
227 239 255
227 239 255
227 239 255
227 239 255
227 239 255
227 239 255
227 239 255
227 239 255
227 239 255
227 239 255
227 239 255
227 239 255
227 239 255
227 239 255
227 239 255
227 239 255
227 239 255
227 239 255
227 239 255
227 239 255
227 239 255
227 239 255
227 239 255
227 239 255
227 239 255
227 239 255
227 239 255
227 239 255
227 239 255
227 239 255
227 239 255
227 239 255
227 239 255
227 239 255
227 239 255
227 239 255
227 239 255
227 239 255
227 239 255
227 239 255
227 239 255
227 239 255
227 239 255
227 239 255
227 239 255
227 239 255
227 239 255
227 239 255
227 239 255
227 239 255
227 239 255
227 239 255
227 239 255
227 239 255
227 239 255
227 239 255
227 239 255
227 239 255
227 239 255
227 239 255
227 239 255
227 239 255
228 239 255
227 239 255
227 239 255
228 239 255
228 239 255
228 239 255
228 239 255
228 239 255
228 239 255
228 239 255
228 239 255
228 239 255
228 239 255
228 239 255
228 239 255
228 239 255
228 239 255
228 239 255
228 239 255
228 239 255
228 239 255
228 239 255
228 239 255
228 239 255
228 239 255
228 239 255
228 239 255
228 239 255
228 239 255
228 239 255
228 239 255
228 239 255
228 239 255
228 239 255
228 239 255
228 239 255
228 239 255
228 239 255
228 239 255
228 239 255
228 239 255
228 239 255
228 239 255
228 239 255
228 239 255
227 239 255
228 239 255
227 239 255
227 239 255
228 239 255
228 239 255
228 239 255
228 239 255
228 239 255
228 239 255
228 239 255
228 239 255
228 239 255
228 239 255
228 239 255
228 239 255
228 239 255
228 239 255
228 239 255
228 239 255
228 239 255
228 239 255
228 239 255
228 239 255
228 239 255
228 239 255
228 240 255
228 239 255
228 239 255
228 239 255
228 239 255
228 239 255
228 239 255
228 239 255
228 239 255
228 240 255
228 239 255
228 239 255
228 239 255
228 239 255
228 239 255
228 239 255
228 239 255
228 239 255
228 239 255
228 239 255
228 239 255
228 239 255
228 239 255
228 239 255
228 239 255
228 239 255
228 239 255
228 239 255
228 239 255
228 240 255
228 240 255
228 240 255
228 240 255
228 240 255
228 240 255
228 240 255
228 240 255
228 240 255
229 240 255
229 240 255
229 240 255
228 240 255
229 240 255
229 240 255
229 240 255
229 240 255
229 240 255
229 240 255
229 240 255
229 240 255
229 240 255
229 240 255
229 240 255
229 240 255
229 240 255
229 240 255
229 240 255
229 240 255
229 240 255
229 240 255
229 240 255
229 240 255
229 240 255
229 240 255
229 240 255
229 240 255
229 240 255
228 240 255
228 240 255
228 240 255
228 240 255
228 240 255
228 240 255
228 240 255
228 240 255
228 240 255
228 240 255
228 240 255
229 240 255
229 240 255
229 240 255
229 240 255
229 240 255
229 240 255
229 240 255
229 240 255
229 240 255
229 240 255
229 240 255
229 240 255
229 240 255
229 240 255
229 240 255
229 240 255
229 240 255
229 240 255
229 240 255
229 240 255
229 240 255
229 240 255
229 240 255
229 240 255
229 240 255
229 240 255
229 240 255
229 240 255
229 240 255
229 240 255
229 240 255
229 240 255
229 240 255
229 240 255
229 240 255
229 240 255
229 240 255
229 240 255
229 240 255
229 240 255
229 240 255
229 240 255
229 240 255
229 240 255
229 240 255
229 240 255
229 240 255
229 240 255
229 240 255
229 240 255
229 240 255
229 240 255
229 240 255
229 240 255
229 240 255
229 240 255
229 240 255
229 240 255
229 240 255
229 240 255
229 240 255
229 240 255
229 240 255
229 240 255
229 240 255
229 240 255
229 240 255
229 240 255
229 240 255
229 240 255
229 240 255
229 240 255
229 240 255
229 240 255
229 240 255
230 240 255
229 240 255
230 240 255
229 240 255
229 240 255
229 240 255
229 240 255
229 240 255
229 240 255
229 240 255
229 240 255
229 240 255
229 240 255
229 240 255
229 240 255
229 240 255
229 240 255
229 240 255
229 240 255
229 240 255
229 240 255
229 240 255
229 240 255
229 240 255
229 240 255
229 240 255
230 240 255
230 240 255
230 240 255
230 240 255
230 240 255
230 240 255
230 240 255
230 240 255
230 240 255
230 240 255
230 240 255
230 240 255
230 240 255
230 240 255
230 240 255
230 240 255
230 240 255
230 240 255
230 240 255
230 240 255
230 240 255
230 240 255
230 240 255
230 240 255
230 240 255
230 241 255
230 240 255
230 240 255
230 240 255
230 240 255
230 240 255
230 240 255
230 240 255
230 240 255
230 240 255
230 240 255
230 240 255
230 240 255
230 240 255
230 240 255
230 240 255
230 240 255
230 240 255
230 240 255
230 240 255
230 240 255
230 240 255
230 240 255
229 240 255
